<svg xmlns="http://www.w3.org/2000/svg" viewBox="0 0 160 120" fill="none">
  <defs>
    <linearGradient id="cyan-blue-grad" x1="0%" y1="0%" x2="100%" y2="100%">
      <stop offset="0%" stop-color="#00C9FF" />
      <stop offset="100%" stop-color="#0057B8" />
    </linearGradient>
  </defs>
  <!-- Swoop trail -->
  <path d="M 30 95 C 50 85, 90 60, 120 40 C 90 65, 55 85, 35 90 C 32 91, 30 93, 30 95 Z" fill="url(#cyan-blue-grad)" />
  <path d="M 25 95 C 55 90, 95 70, 130 45 C 140 38, 155 30, 170 25 C 155 35, 130 55, 105 75 C 70 95, 40 102, 25 95 Z" fill="url(#cyan-blue-grad)" />
  
  <!-- Airplane -->
  <path d="M 90 60 L 102 63 L 100 50 L 92 40 L 88 42 L 92 50 Z" fill="url(#cyan-blue-grad)" />
  <path d="M 105 55 L 135 75 L 128 78 L 108 62 Z" fill="url(#cyan-blue-grad)" />
  <path d="M 95 48 L 110 20 L 122 25 L 102 45 Z" fill="url(#cyan-blue-grad)" />
  <path d="M 80 52 C 95 45, 135 30, 160 22 C 150 32, 120 55, 100 65 C 90 70, 80 65, 80 52 Z" fill="url(#cyan-blue-grad)" />
  
  <!-- Dots -->
  <circle cx="70" cy="85" r="3" fill="#00C9FF" />
  <circle cx="55" cy="92" r="2.5" fill="#00C9FF" />
  <circle cx="42" cy="96" r="2" fill="#00C9FF" />
  <circle cx="100" cy="88" r="2" fill="#00C9FF" />
  <circle cx="115" cy="82" r="3" fill="#0057B8" />
  <circle cx="128" cy="74" r="2" fill="#00C9FF" />
</svg>
